<svg xmlns="http://www.w3.org/2000/svg" width="120" height="119.54" style="shape-rendering:geometricPrecision;text-rendering:geometricPrecision;image-rendering:optimizeQuality;fill-rule:evenodd;clip-rule:evenodd" viewBox="0 0 120px 119.54px"><path style="opacity:1" fill="#7a4bc6" d="M52.644-.23h14.253q13.112 1.766 24.368 8.736.221 1.068 1.379.92.834.298 1.379.92.369 1.342 1.839 1.379.369 1.342 1.839 1.379a25.6 25.6 0 0 1 5.977 5.517q.164 1.313 1.379 1.839.69.23.92.92.164 1.313 1.379 1.839.164 1.313 1.379 1.839-.051 1.053.92 1.379-.051 1.053.92 1.379-.051 1.053.92 1.379 2.783 3.726 4.138 8.276-.262 1.516.92 2.299.506.833.46 1.839-.063 1.829.92 3.218a53 53 0 0 1 1.839 7.356v14.713q-8.59 44.223-52.874 52.414H52.645a146 146 0 0 1-5.977-1.379q-1.389-.982-3.218-.92-1.235.092-2.299-.46-.783-1.182-2.299-.92-5.261-1.517-9.655-4.598-.326-.97-1.379-.92-.326-.97-1.379-.92-.326-.97-1.379-.92-.526-1.215-1.839-1.379-.526-1.215-1.839-1.379-.69-.23-.92-.92-.526-1.215-1.839-1.379-6.08-5.389-10.115-12.414.148-1.158-.92-1.379Q1.606 78.831-.228 66.894V52.181a53 53 0 0 1 1.839-7.356q.982-1.389.92-3.218-.046-1.006.46-1.839 1.182-.783.92-2.299 1.355-4.549 4.138-8.276.97-.326.92-1.379.97-.326.92-1.379.97-.326.92-1.379 1.215-.526 1.379-1.839 1.215-.526 1.379-1.839.23-.69.92-.92 1.215-.526 1.379-1.839 2.714-1.563 4.598-4.138 1.786-.634 2.759-2.299 1.313-.164 1.839-1.379.326-.97 1.379-.92t1.379-.92q1.053.051 1.379-.92 1.16-1.04 2.759-1.379 1.053.051 1.379-.92 2.554-1.503 5.517-2.299 1.516.262 2.299-.92 1.063-.552 2.299-.46 1.829.063 3.218-.92a145 145 0 0 1 5.977-1.379"/><path style="opacity:.941" fill="#ae90dc" d="M46.667 1.149q-1.389.982-3.218.92 1.389-.982 3.218-.92"/><path style="opacity:.945" fill="#bba0e1" d="M41.149 2.529q-.783 1.182-2.299.92.986-.715 2.299-.92"/><path style="opacity:.8" fill="#bea4e2" d="M33.333 5.747q-.326.97-1.379.92.326-.97 1.379-.92"/><path style="opacity:.745" fill="#c3ace5" d="M29.195 8.046q-.326.97-1.379.92.326-.97 1.379-.92"/><path style="opacity:.973" fill="#bc9fe1" d="M91.264 8.506q.834.298 1.379.92-1.158.148-1.379-.92"/><path style="opacity:.824" fill="#ba9fe1" d="M27.816 8.966q-.326.97-1.379.92.326-.97 1.379-.92"/><path style="opacity:.976" fill="#c1a7e4" d="M94.023 10.345q1.193.363 1.839 1.379-1.47-.037-1.839-1.379"/><path style="opacity:.686" fill="#bfa7e3" d="M25.057 10.805q-.526 1.215-1.839 1.379.526-1.215 1.839-1.379"/><path style="opacity:.984" fill="#bea4e3" d="M95.862 11.724q1.193.363 1.839 1.379-1.47-.037-1.839-1.379"/><path style="opacity:.922" fill="#ad8edb" d="M23.218 12.184q-.972 1.664-2.759 2.299.972-1.664 2.759-2.299"/><path style="opacity:.804" fill="#b89de0" d="M20.46 14.483q-1.883 2.575-4.598 4.138 1.883-2.575 4.598-4.138"/><path style="opacity:.741" fill="#c8b3e7" d="M15.862 18.621q-.164 1.313-1.379 1.839.164-1.313 1.379-1.839"/><path style="opacity:.737" fill="#ccb8e9" d="M103.678 18.621q1.215.526 1.379 1.839-1.215-.526-1.379-1.839"/><path style="opacity:.878" fill="#bda3e2" d="M13.563 21.379q-.164 1.313-1.379 1.839.164-1.313 1.379-1.839m92.414 0q1.215.526 1.379 1.839-1.215-.526-1.379-1.839"/><path style="opacity:.91" fill="#ba9fe1" d="M12.184 23.218q-.164 1.313-1.379 1.839.164-1.313 1.379-1.839"/><path style="opacity:.906" fill="#bba0e1" d="M107.356 23.218q1.215.526 1.379 1.839-1.215-.526-1.379-1.839"/><path style="opacity:.627" fill="#b99ee1" d="M10.805 25.057q.051 1.053-.92 1.379-.051-1.053.92-1.379"/><path style="opacity:.624" fill="#ba9fe1" d="M108.736 25.057q.97.326.92 1.379-.97-.326-.92-1.379"/><path style="opacity:.549" fill="#bfa8e3" d="M9.885 26.437q.051 1.053-.92 1.379-.051-1.053.92-1.379"/><path style="opacity:.545" fill="#c0a8e4" d="M109.655 26.437q.97.326.92 1.379-.97-.326-.92-1.379"/><path style="opacity:.467" fill="#c8b2e7" d="M8.966 27.816q.051 1.053-.92 1.379-.051-1.053.92-1.379"/><path style="opacity:.463" fill="#c8b3e7" d="M110.575 27.816q.97.326.92 1.379-.97-.326-.92-1.379"/><path style="opacity:.953" fill="#b99ee1" d="M3.908 37.471q.262 1.516-.92 2.299.204-1.313.92-2.299"/><path style="opacity:.949" fill="#ba9ee1" d="M115.632 37.471q.715.986.92 2.299-1.182-.783-.92-2.299"/><path style="opacity:.929" fill="#b598df" d="M2.529 41.609q.063 1.829-.92 3.218-.063-1.829.92-3.218"/><path style="opacity:.925" fill="#b699df" d="M117.011 41.609q.982 1.389.92 3.218-.982-1.389-.92-3.218"/><path style="opacity:1" fill="#efe9f8" d="M66.897 35.632q2.77-.414 4.828 1.379 5.873-3.677 8.046 2.989-1.189 5.101-5.977 7.356 18.467 4.447 15.402 23.218-6.094 15.176-22.299 12.184-3.928-1.331-7.126-3.908-13.02 9.578-25.287-.92-8.19-10.284-2.299-22.069 9.747-13.063 24.598-6.207a754 754 0 0 0 2.989 2.069q4.586-3.522 10.345-4.368-3.947-1.894-5.747-5.747-.806-3.894 2.529-5.977"/><path style="opacity:1" fill="#7a4cc6" d="M59.54 54.023q4.745 4.436 5.057 11.034-.332 6.865-4.828 11.954-9.384-11.446-.23-22.989"/><path style="opacity:1" fill="#794ac6" d="M70.575 48.506q16.069.669 17.931 16.552-1.346 15.599-17.011 17.011-6.128-.239-10.575-4.368 10.115-12.414 0-24.828 4.214-3.72 9.655-4.368m-24.368.001q7.055-.147 12.414 4.368-10.115 12.414 0 24.828-10.171 8.177-21.149.92-9.179-7.952-5.287-19.54 4.36-8.894 14.023-10.575"/><path style="opacity:1" fill="#7b4dc6" d="M67.356 37.011q2.762-.228 4.598 1.839 1.68-2.469 4.598-1.609 3.29 2.437.69 5.747-2.641 2.753-6.207 3.448a18.7 18.7 0 0 1-4.828-3.908q-1.744-3.354 1.149-5.517"/><path style="opacity:.969" fill="#bca0e2" d="M7.586 89.425q1.068.221.92 1.379-.622-.545-.92-1.379"/><path style="opacity:.733" fill="#cdb9e9" d="M18.621 103.218q1.313.164 1.839 1.379-1.313-.164-1.839-1.379"/><path style="opacity:.851" fill="#c0a8e3" d="M21.379 105.517q1.313.164 1.839 1.379-1.313-.164-1.839-1.379"/><path style="opacity:.882" fill="#bfa6e3" d="M23.218 106.897q1.313.164 1.839 1.379-1.313-.164-1.839-1.379"/><path style="opacity:.573" fill="#bfa6e3" d="M25.057 108.276q1.053-.051 1.379.92-1.053.051-1.379-.92"/><path style="opacity:.478" fill="#c6b0e6" d="M26.437 109.195q1.053-.051 1.379.92-1.053.051-1.379-.92"/><path style="opacity:.384" fill="#cfbdea" d="M27.816 110.115q1.053-.051 1.379.92-1.053.051-1.379-.92"/><path style="opacity:.945" fill="#ba9fe1" d="M38.851 115.632q1.516-.262 2.299.92-1.313-.204-2.299-.92"/><path style="opacity:.718" fill="#b69bdf" d="M43.448 117.011q1.829-.063 3.218.92-1.829.062-3.218-.92"/></svg>