<svg xmlns="http://www.w3.org/2000/svg" width="120" height="120" style="shape-rendering:geometricPrecision;text-rendering:geometricPrecision;image-rendering:optimizeQuality;fill-rule:evenodd;clip-rule:evenodd" viewBox="0 0 120px 120px"><path style="opacity:1" fill="#7a4bc6" d="M51.545-.273h16.364Q111 8.454 119.727 51.545v16.364Q111 111 67.909 119.727H51.545Q8.454 111-.273 67.909V51.545Q8.454 8.454 51.545-.273"/><path style="opacity:1" fill="#f0eaf8" d="M68.455 21q3.296-.287 6.273 1.091 6.844-3.562 9 3.818a31 31 0 0 1-1.364 3.818 42.2 42.2 0 0 1-7.909 6 12.1 12.1 0 0 0-4.364-3Q62.824 27.516 68.455 21"/><path style="opacity:1" fill="#7b4dc7" d="M77.182 22.091q5.074.025 4.636 4.909-2.221 4.675-7.091 6.545-4.558-1.833-7.091-6-1.271-4.449 3.273-4.909 2.241.062 3.818 1.636a14.5 14.5 0 0 0 2.455-2.182"/><path style="opacity:1" fill="#f6f3fb" d="M55.364 38.455q3.116-.276 6 .818l7.909 6.818q.407-2.44.273-4.909h9.818a93 93 0 0 0 .545 14.182 135 135 0 0 1 7.909 6.545q.62 1.857-.273 3.545a62 62 0 0 1-8.182.273 207 207 0 0 1-.818 25.636q-2.51 3.595-6.818 4.636-13.909.545-27.818 0-5.188-1.37-7.364-6.273-.409-11.997-.273-24a62 62 0 0 1-8.182-.273q-.88-1.412-.273-3a1651 1651 0 0 1 27.545-24"/><path style="opacity:1" fill="#7a4bc6" d="M37.364 64.091 30.273 63a1444 1444 0 0 0 25.636-22.091 8.86 8.86 0 0 1 4.364 0l9.273 8.182a4.6 4.6 0 0 0 2.182.273v-6h6q-.136 6.551.273 13.091l7.909 6.818q-4.024.159-7.909.818l-.545 24q-.573 2.918-3 4.636a250 250 0 0 1-22.909 1.364l-7.636-.273q-4.865-1.32-5.727-6.273a128 128 0 0 1 .273-16.909l-.273-5.455q-.227-.749-.818-1.091"/><path style="opacity:1" fill="#baa3e2" d="m30.273 63 7.091 1.091a27.2 27.2 0 0 1-7.636-.545q.101-.496.545-.545"/><path style="opacity:1" fill="#f6f3fb" d="M48.818 65.182q4.898-.499 9.273 1.636 5.871-3.375 11.455.273 3.806 5.597.818 11.727a46.7 46.7 0 0 1-10.091 10.636q-2.966 1.847-5.455-.545-6.235-5.411-10.636-12.273-1.581-7.41 4.636-11.455"/><path style="opacity:1" fill="#7a4cc6" d="M49.909 66.818q4.387.079 7.909 2.727 2.31-1.214 4.636-2.455 6.969-.265 7.636 6.818a8.46 8.46 0 0 1-1.364 3.818 125 125 0 0 1-9.545 10.091q-1.364.545-2.727 0a124 124 0 0 1-9.545-10.09q-2.804-6.817 3-10.909"/></svg>