<svg xmlns="http://www.w3.org/2000/svg" width="120" height="120" style="shape-rendering:geometricPrecision;text-rendering:geometricPrecision;image-rendering:optimizeQuality;fill-rule:evenodd;clip-rule:evenodd" viewBox="0 0 120px 120px"><path style="opacity:.998" fill="#794ac6" d="M56.344-.079h7.152q28.574 2.463 45.536 25.43 9.538 13.794 10.887 30.517v8.265q-3.151 31.137-29.563 47.603-12.205 7.083-26.225 8.185h-8.424q-29.886-2.958-46.488-27.815Q1.104 79.088-.079 63.815v-7.788Q3.175 23.315 31.55 6.993 43.222.81 56.345-.08"/><path style="opacity:1" fill="#fdfdfe" d="M39.656 26.146q19.709-.04 39.417.079l.238.238q.055 2.777 2.464 4.053l1.907.318.238.238a10.2 10.2 0 0 1 0 2.543q-.763-.427-1.669-.477.051-.392-.159-.715-1.264-.154-2.146-1.033a42 42 0 0 1-.477-2.225q-.614-.602-1.51-.556a3 3 0 0 1-.318-.556 1401 1401 0 0 0-36.556-.079l-.318.636q-.896-.046-1.51.556a8.3 8.3 0 0 1-.636 2.384 7.8 7.8 0 0 1-2.146.954q-.227.368-.159.795a6.5 6.5 0 0 0-1.43.079l-.238.238a10.2 10.2 0 0 1 0-2.543l.238-.238q2.696.142 4.053-2.146.232-1.329.715-2.543"/><path style="opacity:1" fill="#f5f2fb" d="M39.656 29.007h.954q-.424 1.144-1.272 2.066l-.159-.159z"/><path style="opacity:1" fill="#f5f1fa" d="M78.119 29.007a1.9 1.9 0 0 1 .954.159 26 26 0 0 1 .477 1.748l-.159.159q-.941-.849-1.272-2.066"/><path style="opacity:1" fill="#fefefe" d="M35.841 33.616h.477v1.43a9352 9352 0 0 0-.238 54.358l-1.272-.318a4782 4782 0 0 1 0-55.152q.427-.412 1.033-.318"/><path style="opacity:1" fill="#ac8fdb" d="M35.841 33.616q.255-.223.636-.159.075.844-.159 1.589v-1.43z"/><path style="opacity:1" fill="#fdfcfe" d="M82.252 33.457a21 21 0 0 1 1.43.318 3208 3208 0 0 1 .079 55.311 6.2 6.2 0 0 1-1.351.318q.075-27.976-.159-55.947"/><path style="opacity:1" fill="#fcfbfd" d="m54.914 38.861-4.609.318a25 25 0 0 1-2.543.715 19 19 0 0 0-2.146 2.94q-.561 2.661 1.113 4.768l9.536 9.536 3.099-3.099q-2.206-2.069-2.861-5.007.497-3.11 3.179-4.609h3.815a9.5 9.5 0 0 1 1.748 1.113l-4.132.318q-.902.113-1.51.795l-1.113 1.748q-.159.477 0 .954l.795 1.907a126 126 0 0 1 3.735 3.815l-2.384.318a137 137 0 0 0-3.974 3.894q-.397.159-.795 0l-10.569-10.57q-3.45-4.868.397-9.457 4.475-3.672 9.219-.397"/><path style="opacity:1" fill="#dccfef" d="M54.914 38.861q.238.079.318.318-1.634-.077-3.179.159a6.3 6.3 0 0 0-1.748-.159z"/><path style="opacity:1" fill="#794bc6" d="M65.722 45.695a.9.9 0 0 1-.477-.159 9.5 9.5 0 0 0-1.748-1.113q-1.909-.624-3.815 0-2.681 1.499-3.179 4.609.655 2.938 2.861 5.007l-3.099 3.1-9.536-9.536q-1.674-2.107-1.113-4.768a19 19 0 0 1 2.146-2.94 25 25 0 0 0 2.543-.715 6.3 6.3 0 0 1 1.748.159 6.8 6.8 0 0 1 1.748.874q1.101 1.263 2.464 2.146 1.282-.803 2.305-1.987 2.548-2.067 5.563-.795l2.146 1.828q.831 1.496.795 3.179a14 14 0 0 0-1.351 1.113"/><path style="opacity:1" fill="#fbfafd" d="M73.192 45.695q-2.189-.078-4.291.159a4.7 4.7 0 0 0-1.113.397q-.943 1.105-2.146 1.828L65.245 48q-1.042-1.323-2.543-1.987l3.02-.318a14 14 0 0 1 1.351-1.113q.036-1.683-.795-3.179l-2.146-1.827q-3.014-1.273-5.563.795-1.022 1.184-2.305 1.987-1.362-.883-2.464-2.146a6.8 6.8 0 0 0-1.748-.874q1.545-.236 3.179-.159a9 9 0 0 1 1.033.954q4.65-4.857 10.252-1.192 2.127 2.069 2.384 5.007 2.612-.191 4.291 1.748"/><path style="opacity:1" fill="#e0d5f1" d="M63.497 44.424h-3.815q1.906-.624 3.815 0"/><path style="opacity:1" fill="#d7c9ee" d="M65.245 45.536q.213.145.477.159l-3.02.318a5.4 5.4 0 0 0-1.589-.159zm3.656.318q2.102-.237 4.291-.159.159 0 .159.159-1.397-.077-2.702.159a6.3 6.3 0 0 0-1.748-.159"/><path style="opacity:1" fill="#794bc6" d="M61.113 45.854a5.4 5.4 0 0 1 1.589.159q1.502.663 2.543 1.987l.397.079q1.203-.723 2.146-1.828a4.7 4.7 0 0 1 1.113-.397 6.3 6.3 0 0 1 1.748.159 34 34 0 0 1 1.987 1.907q.369 1.817-.636 3.338a364 364 0 0 1-6.437 6.358 22 22 0 0 1-2.225-2.225q-.079-.238-.318-.318a126 126 0 0 0-3.735-3.815l-.795-1.907q-.159-.477 0-.954l1.113-1.748q.608-.682 1.51-.795"/><path style="opacity:1" fill="#faf8fd" d="M70.649 46.013q1.305-.236 2.702-.159 1.695 1.811 1.192 4.291a15 15 0 0 0-1.43 2.543l-7.073 7.074q-.477.159-.954 0a154 154 0 0 1-4.132-4.212q1.145-.235 2.384-.159a22 22 0 0 0 2.225 2.225A364 364 0 0 0 72 51.258q1.005-1.521.636-3.338a34 34 0 0 0-1.987-1.907"/><path style="opacity:1" fill="#d7c8ee" d="M63.02 55.073q.238.079.318.318-1.239-.076-2.384.159l-.318-.159z"/><path style="opacity:1" fill="#fefefe" d="M47.921 74.623q11.365-.079 22.728.159.318.715 0 1.43a406 406 0 0 1-22.728 0q-.295-.794 0-1.589"/><path style="opacity:1" fill="#c6b3e6" d="M36.795 87.656q-.234.825-.159 1.748-.312-.918 0-1.907.145.03.159.159"/><path style="opacity:1" fill="#fdfdfe" d="M36.795 87.656q3.466.801 4.291 4.291a1051 1051 0 0 0 36.556 0q.658-2.524 2.861-3.894a5.3 5.3 0 0 1 1.589-.397v1.907a1.34 1.34 0 0 0-.636.079 22 22 0 0 0-3.417 3.417 5 5 0 0 1-.238.636 1070 1070 0 0 1-36.874 0 18 18 0 0 0-1.192-1.907q-1.395-1.44-3.099-2.384-.075-.923.159-1.748"/><path style="opacity:1" fill="#f8f6fc" d="M39.179 91.788q.939.822 1.43 1.987-.679.225-1.192-.238a69 69 0 0 1-.238-1.748"/><path style="opacity:1" fill="#f5f1fa" d="M79.391 91.788q.152.142.159.397a36 36 0 0 0-.238 1.351q-.529.505-1.192.159.548-1.023 1.272-1.907"/></svg>