<svg xmlns="http://www.w3.org/2000/svg" width="120" height="120" style="shape-rendering:geometricPrecision;text-rendering:geometricPrecision;image-rendering:optimizeQuality;fill-rule:evenodd;clip-rule:evenodd" viewBox="0 0 120 120"><path style="opacity:1" fill="#7a4bc6" d="M52.643-.229h14.253q13.088 1.757 24.368 8.736.221 1.067 1.379.92a48 48 0 0 1 10.576 8.736q.165 1.312 1.379 1.84a25.6 25.6 0 0 1 5.059 6.437q-.051 1.053.92 1.379 1.672 1.731 2.299 4.139-.051 1.053.92 1.379 1.501 2.555 2.299 5.517-.261 1.515.92 2.299.552 1.064.459 2.299-.061 1.829.92 3.219a173 173 0 0 1 1.379 5.976V66.9q-8.275 44.597-52.875 52.875H52.645a173 173 0 0 1-5.976-1.379q-1.389-.981-3.219-.92-1.235.093-2.299-.459-.784-1.181-2.299-.92-2.963-.797-5.517-2.299-.325-.971-1.379-.92-2.408-.627-4.139-2.299-.325-.971-1.379-.92A25.6 25.6 0 0 1 20 104.6q-.525-1.216-1.84-1.379a48 48 0 0 1-8.736-10.576q.149-1.157-.92-1.379-6.976-11.28-8.736-24.368V52.645a173 173 0 0 1 1.379-5.976q.981-1.389.92-3.219-.091-1.235.459-2.299 1.181-.784.92-2.299.797-2.963 2.299-5.517.971-.325.92-1.379.627-2.408 2.299-4.139.971-.325.92-1.379a25.6 25.6 0 0 1 5.059-6.437q2.756-2.297 5.057-5.057 1.787-.635 2.757-2.299a12.8 12.8 0 0 1 3.677-2.757q1.053.051 1.379-.92 1.731-1.672 4.139-2.299 1.053.051 1.379-.92 2.555-1.501 5.517-2.299 1.515.261 2.299-.92 1.064-.552 2.299-.459 1.829.061 3.219-.92a173 173 0 0 1 5.976-1.379"/><path style="opacity:.933" fill="#b092dd" d="M46.667 1.149q-1.389.981-3.219.92 1.389-.981 3.219-.92"/><path style="opacity:.925" fill="#bea4e2" d="M41.149 2.528q-.784 1.181-2.299.92.987-.715 2.299-.92"/><path style="opacity:.753" fill="#c3ade5" d="M33.333 5.747q-.325.971-1.379.92.325-.971 1.379-.92"/><path style="opacity:.941" fill="#c1a7e4" d="M91.264 8.507q.835.299 1.379.92-1.157.149-1.379-.92"/><path style="opacity:.757" fill="#c2aae5" d="M27.816 8.965q-.325.971-1.379.92.325-.971 1.379-.92"/><path style="opacity:.929" fill="#aa89da" d="M22.757 12.643q-.973 1.664-2.757 2.299.973-1.664 2.757-2.299"/><path style="opacity:.694" fill="#c4ade5" d="M20 14.941Q17.701 17.699 14.941 20q1.84-3.219 5.059-5.059"/><path style="opacity:.694" fill="#cfbcea" d="M103.219 18.16q1.216.525 1.379 1.84-1.216-.525-1.379-1.84"/><path style="opacity:.4" fill="#cebbea" d="M9.885 26.437q.051 1.053-.92 1.379-.051-1.053.92-1.379"/><path style="opacity:.396" fill="#cebcea" d="M109.656 26.437q.971.325.92 1.379-.971-.325-.92-1.379"/><path style="opacity:.29" fill="#d4c3ec" d="M6.667 31.955q.051 1.053-.92 1.379-.051-1.053.92-1.379"/><path style="opacity:.286" fill="#d4c4ec" d="M112.875 31.955q.971.325.92 1.379-.971-.325-.92-1.379"/><path style="opacity:1" fill="#efe9f7" d="M50.344 34.712V56.32h7.357a267 267 0 0 0-.459-22.069q.067-2.384 1.379-4.368.573-.475.92.229 1.405 1.963.459 4.139 1.355 10.685.92 21.608h7.357q-.115-11.725.229-23.448 1.949-5.568 2.989.459a3091 3091 0 0 0 0 22.989q6.211-.115 12.413.229 4.347 1.669 3.677 6.437a571 571 0 0 0-.691 19.08l-.691.691a397 397 0 0 1-26.667.691q-12.76 0-25.288-.459l51.035-.92q.424-.077.691-.459a89 89 0 0 0-.229-15.632q-5.853 1.827-11.725 0-7.259 3.595-14.483 0-7.003 2.744-14.024 0-5.803 2.392-11.725.459-.043-.373-.459-.459-.459 7.467-.92 14.712-.8-10.227-.229-20.691.899-2.971 3.909-3.448 5.512-.344 11.035-.229-.115-11.725.229-23.448.843-5.227 2.757-.459.027 1.533.229 2.757"/><path style="opacity:1" fill="#8255c9" d="M58.621 31.955q1.627.613.229 1.84a3.9 3.9 0 0 1-.229-1.84"/><path style="opacity:1" fill="#8358ca" d="M48.965 36.552q.88.611 0 1.379-.733-.637 0-1.379"/><path style="opacity:1" fill="#875ccb" d="M59.08 36.552q.893.931-.229 1.84-.4-.984.229-1.84"/><path style="opacity:1" fill="#9069cf" d="M48.507 39.309q1.725.008.229.92a1.12 1.12 0 0 1-.229-.92"/><path style="opacity:1" fill="#ae91dc" d="M70.115 38.851q.819 1.376-.92 1.149.608-.488.92-1.149"/><path style="opacity:.929" fill="#bda3e2" d="M3.448 38.851q.261 1.515-.92 2.299.205-1.312.92-2.299"/><path style="opacity:.925" fill="#bea4e2" d="M116.091 38.851q.715.987.92 2.299-1.181-.784-.92-2.299"/><path style="opacity:1" fill="#855bcb" d="M48.965 41.149q.893.931-.229 1.84-.4-.984.229-1.84"/><path style="opacity:1" fill="#8154c9" d="M59.08 41.149q.893.931-.229 1.84-.4-.984.229-1.84"/><path style="opacity:1" fill="#d5c4ec" d="M69.195 41.608q2.157 1.725.229 3.677.195-1.763-.229-3.677"/><path style="opacity:1" fill="#9b78d3" d="M59.08 43.909q.837.688-.229 1.379-.325-.741.229-1.379"/><path style="opacity:.706" fill="#b89de0" d="M2.069 43.448q.061 1.829-.92 3.219-.061-1.829.92-3.219"/><path style="opacity:1" fill="#8357ca" d="M59.08 46.208q.88.611 0 1.379-.733-.637 0-1.379"/><path style="opacity:.702" fill="#b89de0" d="M117.472 43.448q.981 1.389.92 3.219-.981-1.389-.92-3.219"/><path style="opacity:1" fill="#8256c9" d="M48.507 46.208q1.707.309.229 1.379a2.27 2.27 0 0 1-.229-1.379"/><path style="opacity:1" fill="#9774d3" d="M48.965 48.507q.837.688-.229 1.379-.325-.741.229-1.379"/><path style="opacity:1" fill="#8e66ce" d="M58.621 48.965q1.725.008.229.92a1.12 1.12 0 0 1-.229-.92"/><path style="opacity:1" fill="#d4c3ec" d="M70.115 48.507q.032 1.157.459 2.528a2.85 2.85 0 0 1-.92 1.608q-.235-1.373-.459-2.757a85 85 0 0 0 .92-1.379"/><path style="opacity:1" fill="#ac8edb" d="M57.243 34.253a267 267 0 0 1 .459 22.069h-7.357V34.714a243 243 0 0 1 .459 21.149h6.437z"/><path style="opacity:1" fill="#8256c9" d="M59.08 50.805q.893.931-.229 1.84-.4-.984.229-1.84"/><path style="opacity:1" fill="#8a60cc" d="M48.965 50.805q.893.931-.229 1.84-.4-.984.229-1.84"/><path style="opacity:1" fill="#b398de" d="M69.656 53.563q.837.688-.229 1.379-.325-.741.229-1.379"/><path style="opacity:1" fill="#7a4bc6" d="M35.632 57.243h11.493q-.92 4.139 3.219 3.219v-3.219h7.357v3.219q4.139.92 3.219-3.219h7.357v3.219h3.219v-3.219q6.44-.115 12.875.229 1.213.696 1.608 2.069a11.6 11.6 0 0 1 0 4.597q-6.099 2.707-12.184 0-7.144 3.648-14.253 0-6.915 3.589-13.792 0-5.891 3.131-11.955.459-.8-2.499-.229-5.059.707-1.509 2.069-2.299"/><path style="opacity:1" fill="#794ac6" d="M85.288 81.608q-25.517.115-51.035-.229l-.691-.691q-.571-7.477.229-14.712 5.92 1.931 11.725-.459 7.021 2.744 14.024 0 7.224 3.595 14.483 0 5.872 1.827 11.725 0a89 89 0 0 1 .229 15.632q-.264.384-.691.459"/><path style="opacity:1" fill="#dfd3f1" d="M33.792 65.976q-.8 7.235-.229 14.712l.691.691q25.515.344 51.035.229l-51.035.92q-1.928-.323-1.84-2.299.459-7.248.92-14.712.419.085.459.459"/><path style="opacity:.941" fill="#c0a6e4" d="M8.507 91.264q1.067.221.92 1.379-.621-.544-.92-1.379"/><path style="opacity:.694" fill="#cfbbea" d="M18.16 103.219q1.312.165 1.84 1.379-1.312-.165-1.84-1.379"/><path style="opacity:.4" fill="#cebbea" d="M26.437 109.656q1.053-.051 1.379.92-1.053.051-1.379-.92"/><path style="opacity:.29" fill="#d4c3ec" d="M31.955 112.875q1.053-.051 1.379.92-1.053.051-1.379-.92"/><path style="opacity:.929" fill="#bda3e2" d="M38.851 116.091q1.515-.261 2.299.92-1.312-.205-2.299-.92"/><path style="opacity:.706" fill="#b89de0" d="M43.448 117.472q1.829-.061 3.219.92-1.829.061-3.219-.92"/></svg>