<svg xmlns="http://www.w3.org/2000/svg" width="120" height="119.54" style="shape-rendering:geometricPrecision;text-rendering:geometricPrecision;image-rendering:optimizeQuality;fill-rule:evenodd;clip-rule:evenodd" viewBox="0 0 120px 119.54px"><path style="opacity:1" fill="#7a4bc6" d="M52.644-.23h14.253q13.112 1.766 24.368 8.736.221 1.068 1.379.92.834.298 1.379.92.369 1.342 1.839 1.379.369 1.342 1.839 1.379a25.6 25.6 0 0 1 5.977 5.517q.164 1.313 1.379 1.839.69.23.92.92.164 1.313 1.379 1.839.164 1.313 1.379 1.839-.051 1.053.92 1.379-.051 1.053.92 1.379-.051 1.053.92 1.379 2.783 3.726 4.138 8.276-.262 1.516.92 2.299.506.833.46 1.839-.063 1.829.92 3.218a53 53 0 0 1 1.839 7.356v14.713q-8.59 44.223-52.874 52.414H52.645a146 146 0 0 1-5.977-1.379q-1.389-.982-3.218-.92-1.235.092-2.299-.46-.783-1.182-2.299-.92-5.261-1.517-9.655-4.598-.326-.97-1.379-.92-.326-.97-1.379-.92-.326-.97-1.379-.92-.526-1.215-1.839-1.379-.526-1.215-1.839-1.379-.69-.23-.92-.92-.526-1.215-1.839-1.379-6.08-5.389-10.115-12.414.148-1.158-.92-1.379Q1.606 78.831-.228 66.894V52.181a53 53 0 0 1 1.839-7.356q.982-1.389.92-3.218-.046-1.006.46-1.839 1.182-.783.92-2.299 1.355-4.549 4.138-8.276.97-.326.92-1.379.97-.326.92-1.379.97-.326.92-1.379 1.215-.526 1.379-1.839 1.215-.526 1.379-1.839.23-.69.92-.92 1.215-.526 1.379-1.839 2.714-1.563 4.598-4.138 1.786-.634 2.759-2.299 1.313-.164 1.839-1.379.326-.97 1.379-.92t1.379-.92q1.053.051 1.379-.92 1.16-1.04 2.759-1.379 1.053.051 1.379-.92 2.554-1.503 5.517-2.299 1.516.262 2.299-.92 1.063-.552 2.299-.46 1.829.063 3.218-.92a145 145 0 0 1 5.977-1.379"/><path style="opacity:.941" fill="#ae90dc" d="M46.667 1.149q-1.389.982-3.218.92 1.389-.982 3.218-.92"/><path style="opacity:.945" fill="#bba0e1" d="M41.149 2.529q-.783 1.182-2.299.92.986-.715 2.299-.92"/><path style="opacity:.8" fill="#bea4e2" d="M33.333 5.747q-.326.97-1.379.92.326-.97 1.379-.92"/><path style="opacity:.745" fill="#c3ace5" d="M29.195 8.046q-.326.97-1.379.92.326-.97 1.379-.92"/><path style="opacity:.973" fill="#bc9fe1" d="M91.264 8.506q.834.298 1.379.92-1.158.148-1.379-.92"/><path style="opacity:.824" fill="#ba9fe1" d="M27.816 8.966q-.326.97-1.379.92.326-.97 1.379-.92"/><path style="opacity:.976" fill="#c1a7e4" d="M94.023 10.345q1.193.363 1.839 1.379-1.47-.037-1.839-1.379"/><path style="opacity:.686" fill="#bfa7e3" d="M25.057 10.805q-.526 1.215-1.839 1.379.526-1.215 1.839-1.379"/><path style="opacity:.984" fill="#bea4e3" d="M95.862 11.724q1.193.363 1.839 1.379-1.47-.037-1.839-1.379"/><path style="opacity:.922" fill="#ad8edb" d="M23.218 12.184q-.972 1.664-2.759 2.299.972-1.664 2.759-2.299"/><path style="opacity:.804" fill="#b89de0" d="M20.46 14.483q-1.883 2.575-4.598 4.138 1.883-2.575 4.598-4.138"/><path style="opacity:.741" fill="#c8b3e7" d="M15.862 18.621q-.164 1.313-1.379 1.839.164-1.313 1.379-1.839"/><path style="opacity:.737" fill="#ccb8e9" d="M103.678 18.621q1.215.526 1.379 1.839-1.215-.526-1.379-1.839"/><path style="opacity:.878" fill="#bda3e2" d="M13.563 21.379q-.164 1.313-1.379 1.839.164-1.313 1.379-1.839m92.414 0q1.215.526 1.379 1.839-1.215-.526-1.379-1.839"/><path style="opacity:.91" fill="#ba9fe1" d="M12.184 23.218q-.164 1.313-1.379 1.839.164-1.313 1.379-1.839"/><path style="opacity:.906" fill="#bba0e1" d="M107.356 23.218q1.215.526 1.379 1.839-1.215-.526-1.379-1.839"/><path style="opacity:.627" fill="#b99ee1" d="M10.805 25.057q.051 1.053-.92 1.379-.051-1.053.92-1.379"/><path style="opacity:.624" fill="#ba9fe1" d="M108.736 25.057q.97.326.92 1.379-.97-.326-.92-1.379"/><path style="opacity:.549" fill="#bfa8e3" d="M9.885 26.437q.051 1.053-.92 1.379-.051-1.053.92-1.379"/><path style="opacity:.545" fill="#c0a8e4" d="M109.655 26.437q.97.326.92 1.379-.97-.326-.92-1.379"/><path style="opacity:.467" fill="#c8b2e7" d="M8.966 27.816q.051 1.053-.92 1.379-.051-1.053.92-1.379"/><path style="opacity:.463" fill="#c8b3e7" d="M110.575 27.816q.97.326.92 1.379-.97-.326-.92-1.379"/><path style="opacity:.953" fill="#b99ee1" d="M3.908 37.471q.262 1.516-.92 2.299.204-1.313.92-2.299"/><path style="opacity:.949" fill="#ba9ee1" d="M115.632 37.471q.715.986.92 2.299-1.182-.783-.92-2.299"/><path style="opacity:.929" fill="#b598df" d="M2.529 41.609q.063 1.829-.92 3.218-.063-1.829.92-3.218"/><path style="opacity:.925" fill="#b699df" d="M117.011 41.609q.982 1.389.92 3.218-.982-1.389-.92-3.218"/><path style="opacity:1" fill="#ede7f7" d="M58.161 38.851q18.482 5.586 36.552 12.414.497 1.112-.23 2.069a657 657 0 0 0-14.943 6.667l-.46 16.552q-.348 2.428-2.529 3.448-16.092.46-32.184 0a8.2 8.2 0 0 1-2.069-2.529 299 299 0 0 0-.69-16.552 25 25 0 0 0-4.138-1.839q-.945 2.058.69 3.678a79 79 0 0 1 .46 11.034q-3.678.92-7.356 0a19.2 19.2 0 0 1 .69-7.586q-1.325-3.222 1.379-5.287.92-1.839 0-3.678a66 66 0 0 1-8.966-4.138q-.46-.92 0-1.839A1061 1061 0 0 0 58.16 38.851"/><path style="opacity:1" fill="#794bc6" d="M76.552 60.92h1.379a103.5 103.5 0 0 1-.69 16.552l-1.149 1.149q-15.632.46-31.264 0l-1.149-1.149a88.7 88.7 0 0 1 .23-15.632 224 224 0 0 0 15.402 6.437 235 235 0 0 0 17.241-7.356"/><path style="opacity:1" fill="#855aca" d="M35.632 61.839q-.69.92-1.379 0 .892-1.068.92-2.759l-.46-2.759a86 86 0 0 1-9.195-4.138 862 862 0 0 0 33.333-11.954 1505 1505 0 0 1 34.253 11.954 573 573 0 0 1-33.563 14.713 576 576 0 0 0-23.908-9.655z"/><path style="opacity:1" fill="#a686d8" d="M34.253 61.839q.69.92 1.379 0 .69.23.92.92v.46q-1.297-.58-2.759-.46v1.839l-.92-1.379a3 3 0 0 1 1.379-1.379"/><path style="opacity:1" fill="#eee7f7" d="M36.552 63.218q-.56 4.606.46 9.195h-4.138a137 137 0 0 1 1.379-6.897 20 20 0 0 1-.46-.92v-1.839q1.462-.12 2.759.46"/><path style="opacity:1" fill="#eee8f7" d="M56.782 54.023q2.236.745 4.598.23 2.759-1.149 0-2.299l-2.069-.23q-1.754-.113-2.989.92a201 201 0 0 1-20.23 3.218 53 53 0 0 1-8.736-3.448A1302 1302 0 0 1 59.08 41.15a585 585 0 0 1 32.644 11.264A1466 1466 0 0 1 59.54 65.977a360 360 0 0 1-22.529-9.425 235 235 0 0 1 19.77-2.529"/><path style="opacity:1" fill="#7a4bc6" d="M58.161 42.529a682 682 0 0 1 29.885 9.885L60.46 64.368q-1.149.46-2.299 0l-15.632-6.897a98 98 0 0 1 12.414-2.069 23 23 0 0 0 6.897.23q4.598-2.529 0-5.057-3.806-.887-6.897 1.379a928 928 0 0 0-18.851 2.529 18.4 18.4 0 0 1-5.057-2.069 406 406 0 0 0 27.126-9.885"/><path style="opacity:1" fill="#7a4cc6" d="M56.782 54.023a2.63 2.63 0 0 1-.46-1.379q1.234-1.033 2.989-.92l2.069.23q2.759 1.149 0 2.299-2.361.515-4.598-.23"/><path style="opacity:1" fill="#7f52c8" d="M36.552 62.759q.49 4.87.92 10.115h-5.057a43 43 0 0 1 .92-6.667 13.6 13.6 0 0 1-.46-2.989l.92 1.379q.21.448.46.92a137 137 0 0 0-1.379 6.897h4.138q-1.02-4.59-.46-9.195z"/><path style="opacity:.969" fill="#bca0e2" d="M7.586 89.425q1.068.221.92 1.379-.622-.545-.92-1.379"/><path style="opacity:.733" fill="#cdb9e9" d="M18.621 103.218q1.313.164 1.839 1.379-1.313-.164-1.839-1.379"/><path style="opacity:.851" fill="#c0a8e3" d="M21.379 105.517q1.313.164 1.839 1.379-1.313-.164-1.839-1.379"/><path style="opacity:.882" fill="#bfa6e3" d="M23.218 106.897q1.313.164 1.839 1.379-1.313-.164-1.839-1.379"/><path style="opacity:.573" fill="#bfa6e3" d="M25.057 108.276q1.053-.051 1.379.92-1.053.051-1.379-.92"/><path style="opacity:.478" fill="#c6b0e6" d="M26.437 109.195q1.053-.051 1.379.92-1.053.051-1.379-.92"/><path style="opacity:.384" fill="#cfbdea" d="M27.816 110.115q1.053-.051 1.379.92-1.053.051-1.379-.92"/><path style="opacity:.945" fill="#ba9fe1" d="M38.851 115.632q1.516-.262 2.299.92-1.313-.204-2.299-.92"/><path style="opacity:.718" fill="#b69bdf" d="M43.448 117.011q1.829-.063 3.218.92-1.829.062-3.218-.92"/></svg>