<svg xmlns="http://www.w3.org/2000/svg" width="120" height="119.736" style="shape-rendering:geometricPrecision;text-rendering:geometricPrecision;image-rendering:optimizeQuality;fill-rule:evenodd;clip-rule:evenodd" viewBox="0 0 120 119.736"><path style="opacity:.996" fill="#794ac6" d="M54.504-.132H65.22Q98.94 4.2 114.372 34.416q4.32 9.66 5.496 20.088v10.452q-4.176 33.432-34.02 48.888-10.008 4.644-20.892 5.76H54.78q-30.072-3.612-46.476-28.932Q1.308 78.828-.132 65.22V54.24q4.86-35.496 37.5-50.22Q45.72.792 54.516-.132"/><path style="opacity:1" fill="#f7f4fb" d="M69.78 36.024v5.088h-1.344q.132-2.892-.264-5.628-1.26-7.416-8.844-7.764-5.484.432-7.896 5.352a8.4 8.4 0 0 0-.396 2.412q-.396 2.736-.264 5.628h-1.344v-5.088q1.104-9 10.176-9.912 9.096.924 10.176 9.912"/><path style="opacity:1" fill="#794bc6" d="M68.172 35.496v5.352H51.024v-5.352a8.4 8.4 0 0 1 .396-2.412q2.424-4.932 7.896-5.352 7.584.348 8.844 7.764"/><path style="opacity:1" fill="#9874d3" d="M49.416 36.024v5.088h-6.96q3.276-.396 6.696-.264-.132-2.484.264-4.824"/><path style="opacity:1" fill="#9873d3" d="M51.024 35.496v5.352h17.148v-5.352q.396 2.736.264 5.628H50.76q-.132-2.892.264-5.628"/><path style="opacity:1" fill="#9b77d4" d="M69.78 36.024q.396 2.34.264 4.824 3.42-.132 6.696.264h-6.96z"/><path style="opacity:1" fill="#f9f7fc" d="M42.456 41.112H76.74q3.036.3 3.756 3.216v34.02h-1.068q.108-.648-.264-1.068.072-16.608-.132-33.216-.564-1.32-2.004-1.344-3.54-.396-7.236-.264v6.156q-.672.54-1.344 0v-6.156H50.772v6.156q-.672.54-1.344 0v-6.156q-3.96-.132-7.764.264-1.044.3-1.476 1.344-.204 16.872-.132 33.756-.36.288-.264.804h40.98l1.872 5.892q-.432 2.772-3.216 3.348a792 792 0 0 1-40.98-.264q-1.704-1.092-1.872-3.084 1.368-3.648 2.004-7.5l.264-33.48q1.104-2.256 3.612-2.412"/><path style="opacity:1" fill="#9671d2" d="M68.436 48.612q-.396-2.868-.264-5.892H51.024q.132 3.024-.264 5.892v-6.156h17.676z"/><path style="opacity:1" fill="#794ac6" d="M41.652 42.72h7.5q-.132 3.024.264 5.892.672.54 1.344 0 .396-2.868.264-5.892h17.148q-.132 3.024.264 5.892.672.54 1.344 0 .396-2.868.264-5.892h6.96q1.44.012 2.004 1.344.204 16.608.132 33.216v1.068q-19.692.264-39.108-.54-.072-16.872.132-33.756.432-1.032 1.476-1.344"/><path style="opacity:1" fill="#9772d2" d="M41.652 42.72q3.816-.396 7.764-.264v6.156q-.396-2.868-.264-5.892z"/><path style="opacity:1" fill="#9b77d4" d="M77.004 42.72h-6.96q.132 3.024-.264 5.892v-6.156q3.684-.132 7.236.264"/><path style="opacity:1" fill="#f1ecf9" d="M58.8 47.28q1.14.924 2.148-.264 5.412-.276 4.956 5.088a24 24 0 0 0-1.74 2.412 18 18 0 0 0-3.756 3.48 7.2 7.2 0 0 1-1.872-.132q-2.976-2.58-5.22-5.76-.612-2.316.936-4.02 2.04-1.62 4.548-.804"/><path style="opacity:1" fill="#b398de" d="M60.936 47.004q-1.008 1.188-2.148.264a7.2 7.2 0 0 0 2.148-.264"/><path style="opacity:1" fill="#b89ee0" d="M58.26 48.612q-1.356.048-2.676.264.648-.588 1.608-.54.624 0 1.068.264m5.352.264q-1.608-.54-3.216 0 .648-.588 1.608-.54.96-.06 1.608.54"/><path style="opacity:1" fill="#7c4ec7" d="M58.26 48.612q.996.84 2.148.264 1.608-.54 3.216 0 1.272 1.596.396 3.48a96 96 0 0 1-4.416 4.284q-2.856-2.184-4.824-5.088a6 6 0 0 1 .264-1.872q.108-.516.54-.804a24 24 0 0 1 2.676-.264"/><path style="opacity:1" fill="#c4aee6" d="M55.044 49.692a6 6 0 0 0-.264 1.872q-.264-.384-.264-.936.048-.672.54-.936"/><path style="opacity:1" fill="#a787d9" d="M64.152 54.504a18 18 0 0 1-3.756 3.48 18 18 0 0 1 3.756-3.48"/><path style="opacity:1" fill="#faf9fd" d="M48.888 62.004q.252 1.344 1.608.936 1.452-1.248 2.412-2.808h1.068v8.844h-1.344a36 36 0 0 0-.264-6.156q-.24.048-.264.264a9.6 9.6 0 0 1-2.148 1.608 9.6 9.6 0 0 1-2.148-1.608q-.024-.216-.264-.264a36 36 0 0 0-.264 6.156h-1.344v-8.844q.72-.12 1.344.264a7.2 7.2 0 0 0 1.608 1.608"/><path style="opacity:1" fill="#f7f4fb" d="M58.8 60.132q.948-.06 1.872.132a12 12 0 0 0 1.608 1.476 19.2 19.2 0 0 1 .132 5.352q-3 3.732-5.892 0a36 36 0 0 1-.132-4.548 15.6 15.6 0 0 1 2.412-2.412"/><path style="opacity:1" fill="#f9f7fc" d="M68.7 62.544q.288.744 1.068.396 1.452-1.248 2.412-2.808h1.068v8.844h-1.344a36 36 0 0 0-.264-6.156q-.24.048-.264.264a9.6 9.6 0 0 1-2.148 1.608 9.6 9.6 0 0 1-2.148-1.608q-.024-.216-.264-.264a36 36 0 0 0-.264 6.156h-1.344v-8.844a3.6 3.6 0 0 1 1.344.132 24 24 0 0 1 2.148 2.28"/><path style="opacity:1" fill="#cab7e8" d="M58.8 60.132a15.6 15.6 0 0 0-2.412 2.412q.54-1.872 2.412-2.412"/><path style="opacity:1" fill="#d2c2ec" d="M72.192 60.132q-.96 1.572-2.412 2.808-.792.336-1.068-.396.372.324.804.132a36 36 0 0 1 2.676-2.544"/><path style="opacity:1" fill="#b69de0" d="M60.672 62.004q-1.2-.54-2.412 0 .408-.504 1.2-.54.792.024 1.2.54"/><path style="opacity:1" fill="#7a4cc6" d="M60.672 62.004h.264a24 24 0 0 1-.264 5.088q-1.164.36-2.412.264v-.264a12 12 0 0 1 0-5.088q1.2-.54 2.412 0"/><path style="opacity:1" fill="#d7c9ee" d="M52.896 60.132q-.96 1.572-2.412 2.808-1.356.408-1.608-.936l1.068.804z"/><path style="opacity:1" fill="#b499df" d="M58.26 62.004a12 12 0 0 0 0 5.088q-.528-1.104-.54-2.544.012-1.44.54-2.544"/><path style="opacity:1" fill="#b49adf" d="M60.936 62.004q.264 1.2.264 2.544-.012 1.44-.54 2.544a24 24 0 0 0 .264-5.088"/><path style="opacity:1" fill="#af93dd" d="m47.808 63.084-.54 5.892a36 36 0 0 1 .264-6.156q.24.048.264.264"/><path style="opacity:1" fill="#b094dd" d="M52.104 63.084q.024-.216.264-.264a36 36 0 0 1 .264 6.156z"/><path style="opacity:1" fill="#af93dd" d="m67.104 63.084-.54 5.892a36 36 0 0 1 .264-6.156q.24.048.264.264"/><path style="opacity:1" fill="#b094dd" d="M71.388 63.084q.024-.216.264-.264a36 36 0 0 1 .264 6.156z"/><path style="opacity:1" fill="#b89fe0" d="M60.672 67.104q-.408.504-1.2.54-.684 0-1.2-.264 1.248.096 2.412-.264"/><path style="opacity:1" fill="#d1c0eb" d="M80.496 44.328a1092 1092 0 0 1 .264 34.284H39.78q-.096-.516.264-.804 19.416.804 39.108.54V77.28q.372.432.264 1.068h1.068z"/><path style="opacity:1" fill="#794ac6" d="M39.504 79.956q20.088-.132 40.176.264a36 36 0 0 1 1.344 4.02q.072 1.332-1.068 2.004-20.496.264-40.98 0-.972-.672-.804-1.872a120 120 0 0 1 1.344-4.416"/></svg>