<svg xmlns="http://www.w3.org/2000/svg" width="120" height="120.462" style="shape-rendering:geometricPrecision;text-rendering:geometricPrecision;image-rendering:optimizeQuality;fill-rule:evenodd;clip-rule:evenodd" viewBox="0 0 120px 120.462px"><path style="opacity:1" fill="#7a4bc6" d="M52.385-.231h14.769q11.982 1.842 22.615 7.846.222 1.072 1.385.923 7.051 4.05 12.462 10.154.165 1.318 1.385 1.846.692.231.923.923.165 1.318 1.385 1.846.165 1.318 1.385 1.846-.051 1.057.923 1.385-.051 1.057.923 1.385-.051 1.057.923 1.385 3.093 4.411 4.615 9.692-.263 1.522.923 2.308.554 1.068.462 2.308-.063 1.836.923 3.231a146 146 0 0 1 1.385 6v14.308q-8.223 44.454-52.615 53.077H52.387a53.5 53.5 0 0 1-7.385-1.846q-1.394-.986-3.231-.923-1.01.046-1.846-.462-.786-1.186-2.308-.923-4.567-1.36-8.308-4.154-.328-.974-1.385-.923-.328-.974-1.385-.923-.328-.974-1.385-.923-.528-1.22-1.846-1.385-.528-1.22-1.846-1.385-.692-.231-.923-.923-.528-1.22-1.846-1.385a25.7 25.7 0 0 1-5.538-6q-.037-1.476-1.385-1.846-.037-1.476-1.385-1.846-.624-.547-.923-1.385.149-1.163-.923-1.385Q1.542 80.316-.23 67.153V52.845a146 146 0 0 1 1.385-6q.986-1.394.923-3.231-.092-1.24.462-2.308 1.186-.786.923-2.308 1.523-5.281 4.615-9.692.974-.328.923-1.385.974-.328.923-1.385.974-.328.923-1.385 1.22-.528 1.385-1.846 1.22-.528 1.385-1.846.231-.692.923-.923 1.22-.528 1.385-1.846 1.385 0 1.385-1.385 1.385 0 1.385-1.385 1.318-.165 1.846-1.385 1.793-.637 2.769-2.308 1.318-.165 1.846-1.385 1.141-1.265 2.769-1.846 1.057.051 1.385-.923.702-.812 1.846-.923 1.057.051 1.385-.923 2.31-1.544 5.077-2.308 2.226.107 3.692-1.385h.462q1.836.063 3.231-.923a53.5 53.5 0 0 1 7.385-1.846"/><path style="opacity:.925" fill="#af91dc" d="M45 1.615q-1.394.985-3.231.923 1.394-.985 3.231-.923"/><path style="opacity:.953" fill="#af8fdc" d="M41.308 2.538q-1.466 1.492-3.692 1.385 1.686-.949 3.692-1.385"/><path style="opacity:.808" fill="#bda3e2" d="M32.538 6.231q-.328.974-1.385.923.328-.974 1.385-.923"/><path style="opacity:.969" fill="#bca1e2" d="M89.769 7.615q.838.299 1.385.923-1.163.149-1.385-.923"/><path style="opacity:.812" fill="#bba1e1" d="M29.308 8.077q-.328.974-1.385.923.328-.974 1.385-.923"/><path style="opacity:.737" fill="#baa0e1" d="M25.154 10.846q-.528 1.22-1.846 1.385.528-1.22 1.846-1.385"/><path style="opacity:.941" fill="#ab8ada" d="M23.308 12.231q-.976 1.671-2.769 2.308.976-1.671 2.769-2.308"/><path style="opacity:.624" fill="#c6b1e6" d="M20.538 14.538q-.528 1.22-1.846 1.385.528-1.22 1.846-1.385"/><path style="opacity:.8" fill="#bca0e2" d="M18.692 15.923q0 1.385-1.385 1.385a3.02 3.02 0 0 1 1.385-1.385"/><path style="opacity:.792" fill="#bca2e2" d="M17.308 17.308q0 1.385-1.385 1.385a3.02 3.02 0 0 1 1.385-1.385"/><path style="opacity:.729" fill="#cab5e8" d="M15.923 18.692q-.165 1.318-1.385 1.846.165-1.318 1.385-1.846"/><path style="opacity:.725" fill="#cdbae9" d="M103.615 18.692q1.22.528 1.385 1.846-1.22-.528-1.385-1.846"/><path style="opacity:.851" fill="#c1a8e4" d="M13.615 21.462q-.165 1.318-1.385 1.846.165-1.318 1.385-1.846"/><path style="opacity:.847" fill="#c0a8e4" d="M105.923 21.462q1.22.528 1.385 1.846-1.22-.528-1.385-1.846"/><path style="opacity:.882" fill="#bfa6e3" d="M12.231 23.308q-.165 1.318-1.385 1.846.165-1.318 1.385-1.846"/><path style="opacity:.878" fill="#bfa6e3" d="M107.308 23.308q1.22.528 1.385 1.846-1.22-.528-1.385-1.846"/><path style="opacity:.573" fill="#bfa6e3" d="M10.846 25.154q.051 1.057-.923 1.385-.051-1.057.923-1.385"/><path style="opacity:.569" fill="#c0a7e3" d="M108.692 25.154q.974.328.923 1.385-.974-.328-.923-1.385"/><path style="opacity:.478" fill="#c6b0e6" d="M9.923 26.538q.051 1.057-.923 1.385-.051-1.057.923-1.385"/><path style="opacity:.475" fill="#c7b1e7" d="M109.615 26.538q.974.328.923 1.385-.974-.328-.923-1.385"/><path style="opacity:.384" fill="#cfbdea" d="M9 27.923q.051 1.057-.923 1.385-.051-1.057.923-1.385"/><path style="opacity:.38" fill="#d0beea" d="M110.538 27.923q.974.328.923 1.385-.974-.328-.923-1.385"/><path style="opacity:1" fill="#f0ebf8" d="M38.077 35.769q8.682-.552 17.077 1.615 7.322.893 14.308-1.385a72 72 0 0 1 11.538 0q4.225.428 8.077 2.077.462 2.077 0 4.154-.768 1.064-2.077.923 1.12 13.188-12 12-9.461.594-11.769-8.769-3.032-3.353-6.462-.462a85 85 0 0 1-3.231 6.462q-1.848 1.845-4.385 2.538a56 56 0 0 1-10.154 0q-5.474-1.81-6.231-7.615a19 19 0 0 1-.231-4.154q-1.308.141-2.077-.923-.462-2.077 0-4.154a52 52 0 0 1 7.615-2.308"/><path style="opacity:1" fill="#7a4bc6" d="M41.769 37.154a47.9 47.9 0 0 1 14.769 2.308q3.118-.895 6.231 0 11.774-4.129 23.769-.692 1.212 1.214.923 3h-2.308a45.4 45.4 0 0 1-.231 6.462q-.625 3.212-3.462 4.846-6.324 1.58-12.462-.462-3.146-2.938-4.385-7.154-4.437-5.094-9.231-.462a85 85 0 0 1-3.231 6.462q-3.555 2.707-8.077 2.308-5.732.835-9-3.692a34 34 0 0 1-.692-8.308h-2.308q-.288-1.786.923-3a134 134 0 0 1 8.769-1.615"/><path style="opacity:.945" fill="#ba9fe1" d="M3.462 39q.263 1.522-.923 2.308.205-1.318.923-2.308"/><path style="opacity:.945" fill="#bba0e1" d="M116.077 39q.718.99.923 2.308-1.186-.786-.923-2.308"/><path style="opacity:.718" fill="#b69bdf" d="M2.077 43.615q.063 1.836-.923 3.231-.062-1.836.923-3.231"/><path style="opacity:.714" fill="#b69be0" d="M117.462 43.615q.985 1.394.923 3.231-.986-1.394-.923-3.231"/><path style="opacity:1" fill="#f1ecf8" d="m50.538 63.923 8.308 1.846A62 62 0 0 0 66 63.923a39 39 0 0 0 4.846.692A27 27 0 0 0 75 66.923a100 100 0 0 1 7.385 8.769A12.7 12.7 0 0 0 87 76.846a2.28 2.28 0 0 1-.231 1.385Q75.945 89.38 63.923 79.616q-3.353-3.245-4.154-7.846-1.023-.181-1.846.462-5.042 14.289-19.846 11.308-4.974-1.999-7.615-6.231 6.4-.857 8.769-6.923 4.37-5.698 11.308-6.462"/><path style="opacity:1" fill="#7a4bc6" d="M48.692 65.769a31.7 31.7 0 0 1 9.923 1.846q13.473-5.983 20.308 6.923 2.084 2.783 5.308 3.923-9.802 8.857-19.385-.231-2.672-3.034-3.923-6.923-1.818-2.473-4.154-.462Q52.518 83.98 39 82.153q-3.348-1.325-6-3.692a14.3 14.3 0 0 0 3.692-1.846q3.046-4.586 6.923-8.538 2.526-1.382 5.077-2.308"/><path style="opacity:.973" fill="#bc9fe1" d="M8.538 91.615q1.072.222.923 1.385-.624-.547-.923-1.385"/><path style="opacity:.98" fill="#c0a6e3" d="M10.385 94.385q1.347.37 1.385 1.846-1.02-.648-1.385-1.846"/><path style="opacity:.988" fill="#bea3e2" d="M11.769 96.231q1.347.37 1.385 1.846-1.02-.648-1.385-1.846"/><path style="opacity:.741" fill="#ccb7e8" d="M18.692 104.077q1.318.165 1.846 1.385-1.318-.165-1.846-1.385"/><path style="opacity:.878" fill="#bda3e2" d="M21.462 106.385q1.318.165 1.846 1.385-1.318-.165-1.846-1.385"/><path style="opacity:.91" fill="#ba9fe1" d="M23.308 107.769q1.318.165 1.846 1.385-1.318-.165-1.846-1.385"/><path style="opacity:.627" fill="#b99ee1" d="M25.154 109.154q1.057-.051 1.385.923-1.057.051-1.385-.923"/><path style="opacity:.549" fill="#bfa8e3" d="M26.538 110.077q1.057-.051 1.385.923-1.057.051-1.385-.923"/><path style="opacity:.471" fill="#c7b2e7" d="M27.923 111q1.057-.051 1.385.923-1.057.051-1.385-.923"/><path style="opacity:.953" fill="#b99ee1" d="M37.615 116.077q1.522-.263 2.308.923-1.318-.205-2.308-.923"/><path style="opacity:.929" fill="#b598df" d="M41.769 117.462q1.836-.063 3.231.923-1.836.062-3.231-.923"/></svg>