<svg xmlns="http://www.w3.org/2000/svg" width="120" height="120.462" style="shape-rendering:geometricPrecision;text-rendering:geometricPrecision;image-rendering:optimizeQuality;fill-rule:evenodd;clip-rule:evenodd" viewBox="0 0 120 120.462"><path style="opacity:1" fill="#7a4bc6" d="M52.385 -0.231h14.769q11.982 1.842 22.615 7.846 0.222 1.072 1.385 0.923 7.051 4.05 12.462 10.154 0.165 1.318 1.385 1.846 0.692 0.231 0.923 0.923 0.165 1.318 1.385 1.846 0.165 1.318 1.385 1.846 -0.051 1.057 0.923 1.385 -0.051 1.057 0.923 1.385 -0.051 1.057 0.923 1.385 4.308 6.546 6 14.308 -0.063 1.836 0.923 3.231a146.308 146.308 0 0 1 1.385 6v14.308q-8.223 44.454 -52.615 53.077h-14.769a53.538 53.538 0 0 1 -7.385 -1.846q-1.394 -0.986 -3.231 -0.923 -6.762 -1.71 -12.462 -5.538 -0.328 -0.974 -1.385 -0.923 -0.328 -0.974 -1.385 -0.923 -1.987 -0.646 -3.231 -2.308 -0.528 -1.22 -1.846 -1.385 -0.692 -0.231 -0.923 -0.923 -0.528 -1.22 -1.846 -1.385a25.662 25.662 0 0 1 -5.538 -6q-0.037 -1.476 -1.385 -1.846 -0.037 -1.476 -1.385 -1.846 -8.583 -12.324 -10.615 -27.231v-14.308a145.846 145.846 0 0 1 1.385 -6q0.986 -1.394 0.923 -3.231 1.692 -7.761 6 -14.308 0.974 -0.328 0.923 -1.385 0.974 -0.328 0.923 -1.385 0.974 -0.328 0.923 -1.385 1.22 -0.528 1.385 -1.846 1.22 -0.528 1.385 -1.846 0.231 -0.692 0.923 -0.923 1.22 -0.528 1.385 -1.846 1.385 0 1.385 -1.385 1.385 0 1.385 -1.385 1.318 -0.165 1.846 -1.385 1.793 -0.637 2.769 -2.308 1.318 -0.165 1.846 -1.385 1.141 -1.265 2.769 -1.846 1.057 0.051 1.385 -0.923 0.702 -0.812 1.846 -0.923 1.057 0.051 1.385 -0.923 2.31 -1.544 5.077 -2.308 2.226 0.107 3.692 -1.385h0.462q1.836 0.063 3.231 -0.923a53.538 53.538 0 0 1 7.385 -1.846"/><path style="opacity:.925" fill="#af91dc" d="M45 1.615q-1.394 0.985 -3.231 0.923 1.394 -0.985 3.231 -0.923"/><path style="opacity:.953" fill="#af8fdc" d="M41.308 2.538q-1.466 1.492 -3.692 1.385 1.686 -0.949 3.692 -1.385"/><path style="opacity:.808" fill="#bda3e2" d="M32.538 6.231q-0.328 0.974 -1.385 0.923 0.328 -0.974 1.385 -0.923"/><path style="opacity:.969" fill="#bca1e2" d="M89.769 7.615q0.838 0.299 1.385 0.923 -1.163 0.149 -1.385 -0.923"/><path style="opacity:.812" fill="#bba1e1" d="M29.308 8.077q-0.328 0.974 -1.385 0.923 0.328 -0.974 1.385 -0.923"/><path style="opacity:.737" fill="#baa0e1" d="M25.154 10.846q-0.528 1.22 -1.846 1.385 0.528 -1.22 1.846 -1.385"/><path style="opacity:.941" fill="#ab8ada" d="M23.308 12.231q-0.976 1.671 -2.769 2.308 0.976 -1.671 2.769 -2.308"/><path style="opacity:.624" fill="#c6b1e6" d="M20.538 14.538q-0.528 1.22 -1.846 1.385 0.528 -1.22 1.846 -1.385"/><path style="opacity:.8" fill="#bca0e2" d="M18.692 15.923q0 1.385 -1.385 1.385a3.018 3.018 0 0 1 1.385 -1.385"/><path style="opacity:.792" fill="#bca2e2" d="M17.308 17.308q0 1.385 -1.385 1.385a3.018 3.018 0 0 1 1.385 -1.385"/><path style="opacity:.729" fill="#cab5e8" d="M15.923 18.692q-0.165 1.318 -1.385 1.846 0.165 -1.318 1.385 -1.846"/><path style="opacity:.725" fill="#cdbae9" d="M103.615 18.692q1.22 0.528 1.385 1.846 -1.22 -0.528 -1.385 -1.846"/><path style="opacity:.851" fill="#c1a8e4" d="M13.615 21.462q-0.165 1.318 -1.385 1.846 0.165 -1.318 1.385 -1.846"/><path style="opacity:.847" fill="#c0a8e4" d="M105.923 21.462q1.22 0.528 1.385 1.846 -1.22 -0.528 -1.385 -1.846"/><path style="opacity:.882" fill="#bfa6e3" d="M12.231 23.308q-0.165 1.318 -1.385 1.846 0.165 -1.318 1.385 -1.846"/><path style="opacity:.878" fill="#bfa6e3" d="M107.308 23.308q1.22 0.528 1.385 1.846 -1.22 -0.528 -1.385 -1.846"/><path style="opacity:.573" fill="#bfa6e3" d="M10.846 25.154q0.051 1.057 -0.923 1.385 -0.051 -1.057 0.923 -1.385"/><path style="opacity:.569" fill="#c0a7e3" d="M108.692 25.154q0.974 0.328 0.923 1.385 -0.974 -0.328 -0.923 -1.385"/><path style="opacity:.478" fill="#c6b0e6" d="M9.923 26.538q0.051 1.057 -0.923 1.385 -0.051 -1.057 0.923 -1.385"/><path style="opacity:.475" fill="#c7b1e7" d="M109.615 26.538q0.974 0.328 0.923 1.385 -0.974 -0.328 -0.923 -1.385"/><path style="opacity:.384" fill="#cfbdea" d="M9 27.923q0.051 1.057 -0.923 1.385 -0.051 -1.057 0.923 -1.385"/><path style="opacity:.38" fill="#d0beea" d="M110.538 27.923q0.974 0.328 0.923 1.385 -0.974 -0.328 -0.923 -1.385"/><path style="opacity:1" fill="#f7f4fb" d="M41.769 33.462q10.992 -1.362 18.692 6.462 8.541 -8.857 20.538 -5.769 16.835 6.782 13.615 24.692 -4.65 13.659 -15.462 23.308a157.846 157.846 0 0 1 -16.154 12.462q-3.135 1.516 -6 -0.462 -14.119 -9.503 -24.692 -22.846 -6.985 -9.254 -6.462 -20.769 2.864 -13.362 15.923 -17.077"/><path style="opacity:1" fill="#7a4bc6" d="M42.231 35.769q5.768 -0.565 11.077 1.615A30.323 30.323 0 0 1 60.462 42.692q10.447 -11.177 24.231 -4.385 12.02 9.074 6.692 23.308 -3.953 8.792 -10.615 15.692a115.062 115.062 0 0 1 -19.154 15.462q-1.711 0.489 -3.231 -0.462 -11.832 -7.957 -21.462 -18.692 -7.899 -8.88 -9 -20.769 1.485 -13.387 14.308 -17.077"/><path style="opacity:1" fill="#f3effa" d="M45.462 46.846q-0.647 0.739 -0.462 1.846h2.308v1.385h-2.308v1.846h-1.385v-1.846h-2.308v-1.385h2.308q0.198 -1.238 -0.462 -2.308 -2.751 -1.774 -1.154 -4.615 2.593 -2.695 5.077 0 1.026 3.272 -1.615 5.077"/><path style="opacity:1" fill="#f1ecf9" d="M75.923 41.769h6.462v6h-1.846a8.538 8.538 0 0 0 -0.231 -2.769q-3.297 2.089 -2.769 6 -3.789 3.194 -5.769 -1.385 0.652 -4.348 5.077 -3.462l2.308 -2.308a11.538 11.538 0 0 0 -3.231 -0.231z"/><path style="opacity:1" fill="#7f52c8" d="M43.154 42.231q3.2 -0.756 2.538 2.308 -3.236 1.269 -2.538 -2.308"/><path style="opacity:.718" fill="#b69bdf" d="M2.077 43.615q0.063 1.836 -0.923 3.231 -0.062 -1.836 0.923 -3.231"/><path style="opacity:.714" fill="#b69be0" d="M117.462 43.615q0.985 1.394 0.923 3.231 -0.986 -1.394 -0.923 -3.231"/><path style="opacity:1" fill="#b49adf" d="M45.462 46.846v1.385q1.107 -0.185 1.846 0.462h-2.308q-0.185 -1.107 0.462 -1.846"/><path style="opacity:1" fill="#7c4ec7" d="M74.538 47.769q2.4 0.421 1.385 2.538 -3.608 0.378 -1.385 -2.538"/><path style="opacity:1" fill="#f1ecf9" d="M58.846 51.462q12.23 -0.217 16.615 11.077 7.099 0.737 4.846 7.385 -1.968 2.142 -4.846 2.769 -6.25 12.932 -20.308 9.923 -7.122 -3.083 -9.692 -10.385 -7.064 -0.709 -4.846 -7.385 1.943 -2.117 4.846 -2.308 3.392 -9.631 13.385 -11.077"/><path style="opacity:1" fill="#7a4cc6" d="M58.846 53.308q4.375 -0.125 3.462 4.154 -2.779 1.386 -3.462 -1.615a2.275 2.275 0 0 0 -1.385 -0.231q-0.115 5.26 5.077 3.923 2.502 -2.038 1.846 -5.308 7.883 2.101 9.923 10.154a14.446 14.446 0 0 1 4.385 1.385q0.988 2.1 -0.462 3.923a19.569 19.569 0 0 0 -3.923 0.692q-4.812 13.197 -18.692 10.385 -6.702 -3.243 -9 -10.385a19.569 19.569 0 0 0 -3.923 -0.692q-1.809 -2.218 0 -4.385 1.987 -0.431 3.923 -0.923 3.065 -9.192 12.231 -11.077"/><path style="opacity:1" fill="#f1edf9" d="M53.308 62.538h1.846q0.624 2.59 -1.846 2.769z"/><path style="opacity:1" fill="#f0ebf8" d="M65.769 62.538h1.846v2.769q-2.47 -0.179 -1.846 -2.769"/><path style="opacity:1" fill="#f5f2fa" d="M56.077 68.538q4.391 -0.115 8.769 0.231 3.018 3.329 -0.692 5.769 -1.092 3.717 -4.846 3a102.462 102.462 0 0 1 -4.385 -4.846q-0.656 -2.49 1.154 -4.154"/><path style="opacity:1" fill="#8a60cd" d="M57 69.923q3.7 -0.115 7.385 0.231 1.032 1.523 -0.462 2.538 -3.462 -3.692 -6.923 0 -1.73 -1.313 0 -2.769"/><path style="opacity:1" fill="#7f52c8" d="M59.308 72.692q3.917 -0.568 2.308 3 -3.987 0.788 -2.308 -3"/><path style="opacity:.98" fill="#c0a6e3" d="M10.385 94.385q1.347 0.37 1.385 1.846 -1.02 -0.648 -1.385 -1.846"/><path style="opacity:.988" fill="#bea3e2" d="M11.769 96.231q1.347 0.37 1.385 1.846 -1.02 -0.648 -1.385 -1.846"/><path style="opacity:.741" fill="#ccb7e8" d="M18.692 104.077q1.318 0.165 1.846 1.385 -1.318 -0.165 -1.846 -1.385"/><path style="opacity:.878" fill="#bda3e2" d="M21.462 106.385q1.318 0.165 1.846 1.385 -1.318 -0.165 -1.846 -1.385"/><path style="opacity:.549" fill="#bfa8e3" d="M26.538 110.077q1.057 -0.051 1.385 0.923 -1.057 0.051 -1.385 -0.923"/><path style="opacity:.471" fill="#c7b2e7" d="M27.923 111q1.057 -0.051 1.385 0.923 -1.057 0.051 -1.385 -0.923"/><path style="opacity:.929" fill="#b598df" d="M41.769 117.462q1.836 -0.063 3.231 0.923 -1.836 0.062 -3.231 -0.923"/></svg>